<svg xmlns="http://www.w3.org/2000/svg" viewBox="0 0 24 24" fill="currentColor">
  <path d="M11.83 9L15.64 12.81c.04-.25.08-.5.08-.81 0-1.66-1.34-3-3-3-.29 0-.54.04-.81.08zm7.08 0L9.19 16.83c.94.3 1.95.47 3.05.47 6 0 10.27-3.11 12-7.5-1.73-4.39-6-7.5-12-7.5-1.1 0-2.11.17-3.05.47zM2.92 2.92L1 4.84 2.05 5.89C1.35 6.94 1 8.42 1 12c1.73 4.39 6 7.5 11 7.5 1.55 0 3.03-.3 4.38-.84l1.04 1.04 1.92-1.92-9.42-9.42zm6.5 6.5L12 11.17c.04-.25.08-.5.08-.81 0-1.66-1.34-3-3-3-.29 0-.54.04-.81.08zM12 4c-4.97 0-9.27 3.11-11 7.5.83 2.04 2.25 3.81 4.06 5.14l1.89-1.89C6.64 13.7 6.5 12.88 6.5 12c0-3.04 2.46-5.5 5.5-5.5.88 0 1.7.14 2.5.4l1.88-1.88C14.83 4.3 13.48 4 12 4z"/>
</svg>